<svg class="logo-svg" xmlns="http://www.w3.org/2000/svg" viewBox="0 0 300 43.62">
	<defs>
		<style>
			.cls-1 {
			fill: #005578;
			}
		</style>
	</defs>
	<g id="レイヤー_2" data-name="レイヤー 2">
		<g id="レイヤー_1-2" data-name="レイヤー 1">
			<path class="cls-1" d="M13,43.62A24.48,24.48,0,0,1,0,39.47l1.24-4.09s6,4.28,12.29,4.37c6.55.09,11-3,11-7.89,0-4.44-4-6-8.77-7.71C9.26,22,1.43,19.63,1.47,12.11c.05-7.9,7.34-12,16-12.11a20.07,20.07,0,0,1,12,4.17L27.5,7.55a16.18,16.18,0,0,0-10.84-4C12.24,3.63,8,5.77,8.05,10c.1,4.63,4.49,6.68,10.22,8.59,5.94,2,12.94,4.75,12.94,11.73C31.21,39.32,24.17,43.57,13,43.62Z"></path>
			<path class="cls-1" d="M155.44,43.62a24.48,24.48,0,0,1-13-4.15l1.24-4.09s6,4.28,12.29,4.37c6.55.09,11-3,11-7.89,0-4.44-4-6-8.76-7.71-6.49-2.14-14.32-4.52-14.27-12,.05-7.9,7.34-12,16-12.11a20.08,20.08,0,0,1,12,4.17l-1.93,3.38a16.22,16.22,0,0,0-10.85-4c-4.42.06-8.69,2.2-8.6,6.42.09,4.63,4.49,6.68,10.22,8.59,5.94,2,12.94,4.75,12.94,11.73C173.63,39.32,166.58,43.57,155.44,43.62Z"></path>
			<path class="cls-1" d="M59.7,43.58c-11.39,0-19.05-4-19.05-19V.81h7.07v23c0,11.37,3.47,15.63,13,15.63,7.46,0,12.49-4,12.49-15.63V.81H78.4V24.59C78.4,37,73.06,43.58,59.7,43.58Z"></path>
			<polygon class="cls-1" points="126.34 42.77 98.31 11.76 98.31 42.77 93.1 42.77 93.1 0.81 96.79 0.81 124.86 31.99 124.86 0.81 130.01 0.81 130.01 42.77 126.34 42.77"></polygon>
			<polygon class="cls-1" points="200.69 4.52 200.69 42.77 193.62 42.77 193.62 4.52 178.95 4.52 178.95 0.81 215.29 0.81 215.29 4.52 200.69 4.52"></polygon>
			<path class="cls-1" d="M285.87,24c4.49-1.77,9.32-5.46,9.41-12,.07-5.48-4.3-11.21-15-11.21H264.38v42h6.79V26.47h6.09a5.45,5.45,0,0,1,2.65.41c2.55,1.44,12.5,15.89,12.5,15.89H300L285.87,24m-8.72-2.5-6,0V4.64h8.93c5.11,0,8.74,2.88,8.74,7.61C288.84,19,282.54,21.1,277.15,21.49Z"></path>
			<path class="cls-1" d="M247.86,42.67,241.05,26H226.32l-6.74,16.63h-5L231.4.58h6.39l17.07,42.09h-7M233.52,7.52l-6.11,15.87h12.67Z"></path>
		</g>
	</g>
</svg>
